<svg version="1.2" xmlns="http://www.w3.org/2000/svg" viewBox="0 0 1000 1000" width="256" height="256">
	<title>Layer</title>
	<style>
		.s0 { fill: #31de7a } 
		.s1 { fill: #2ecc71 } 
		.s2 { fill: #ffffff } 
		.s3 { fill: #e5e5e5 } 
		.s4 { fill: #d7d7d7 } 
		.s5 { fill: #23a35a } 
		.s6 { fill: #d23007 } 
		.s7 { fill: #3f3f3f } 
	</style>
	<path id="Layer" class="s0" d="m33.1 317.3q36.7-93.8 113.3-170.4 63.3-63.2 138.3-99.2 64.8-31.2 137.9-41.8l77.4-5.4 77.3 5.4q73.1 10.6 137.9 41.8 74.6 36 137.9 99.2 77 77 113.7 170.4l-11.7 3.5q-36.7-77.4-102-142.6-64.8-64.8-141.4-100.8-96.5-45.7-211.7-45.7-115.3 0-211.8 45.3-77 36.4-141.8 101.2-65.2 65.2-101.2 142.2z"/>
	<path id="Layer" class="s1" d="m45.2 320.4q36-77 101.2-142.2 64.8-64.8 141.8-101.2 96.5-45.3 211.8-45.3 115.2 0 211.7 45.7 76.6 36 141.4 100.8 65.3 65.2 102 142.6-191.1 51.2-454.8 51.2-263.7 0-455.1-51.6z"/>
	<path id="Layer" class="s2" d="m966.8 317.3l10.2 28.5-10.2 2.7-11.7 3.5q-191.1 51.2-454.8 51.2-263.7 0-455.1-51.5l-12.1-3.2-10.2-3.1 10.2-28.1 12.1 3.1q191.4 51.6 455.1 51.6 263.7 0 454.8-51.2z"/>
	<path id="Layer" fill-rule="evenodd" class="s3" d="m977 345.8q23 72.3 23 154.7v15.6q-4.7 172.7-114.5 302.4l-32.4 35.2q-30.5 30.8-63.7 55-126.2 91.8-289.4 91.9-175.1-0.1-306.7-105.1l-46.9-41.8-32-35.2q-109.8-129.7-114.1-302.4l-0.4-15.6q0-82.4 23-155.1l10.2 3.1 12.1 3.2q191.4 51.5 455.1 51.5 263.7 0 454.8-51.2l11.7-3.5zm-265.3 481.3q-4.7-17.9-21.1-26.9-15.6-9-33.2-4.3-17.9 4.7-27.7 20.7-8.6 15.6-3.9 33.6 4.7 17.6 20.3 26.9 16.4 9.4 34.4 4.7 17.6-4.7 26.5-21.1 9.4-16 4.7-33.6zm-9-115.6q-3.1-10.9-12.8-16.8-10.6-5.9-21.5-2.7-11 2.7-16.4 12.9-5.9 10.1-2.8 21 2.8 11 12.9 16.8 9.8 5.5 20.7 2.8 11-3.1 17.2-12.9 5.5-10.2 2.7-21.1zm107.9 68q-3.9-14.9-17.2-22.7-13.3-7.8-27.8-3.9-14.8 3.9-22.6 17.6-7.8 13.3-3.9 28.1 4.3 14.5 17.6 22.3 13.2 7.4 28.1 3.5 14.4-3.9 22.3-17.2 7.8-13.3 3.5-27.7z"/>
	<path id="Layer" class="s4" d="m810.5 779.4q4.3 14.5-3.5 27.8-7.8 13.3-22.3 17.2-14.8 3.9-28.1-3.6-13.3-7.8-17.6-22.2-3.9-14.9 3.9-28.2 7.9-13.6 22.7-17.5 14.5-3.9 27.7 3.9 13.3 7.8 17.2 22.6zm-107.8-67.9q2.7 10.9-2.7 21.1-6.3 9.7-17.2 12.8-11 2.8-20.7-2.7-10.2-5.8-12.9-16.8-3.1-10.9 2.7-21.1 5.5-10.1 16.4-12.9 11-3.1 21.5 2.8 9.8 5.8 12.9 16.8zm9 115.6q4.7 17.6-4.7 33.6-9 16.4-26.6 21.1-17.9 4.7-34.3-4.7-15.7-9.4-20.4-27-4.6-17.9 4-33.6 9.7-16 27.7-20.7 17.6-4.6 33.2 4.3 16.4 9 21.1 27z"/>
	<path id="Layer" class="s5" d="m587.5 285.2l2.7 4q3.1 5.8 1.2 14.8l-0.8 2.3-2 6.3q-4.7 10.5-14.4 20.3l-0.4 0.8q-7 6.6-16.8 6.6-10.2 0-17.2-7.4-7-7-7-16.8 0-5.5 1.9-9.8l4.7-7 0.8-0.8q11.7-11.7 25-16h1.2q10.5-3.1 16.8 0zm-160.6 48.5l-0.8-0.8q-9.7-9.8-14-20.3-1.6-3.2-2-6.3l-0.8-2.3q-2.3-9 0.8-14.9l3.1-3.9q1.6-1.9 4.3-2.7 6.3-3.2 16.8 0h0.8q13.3 3.9 25.4 16l0.8 0.8 4.7 7 1.9 9.8q0 9.7-7.4 16.8-7 7.4-16.8 7.4-9.8 0-16.8-6.6z"/>
	<path id="Layer" class="s0" d="m545.3 179.8l-0.4-12.1q0-51.6 36.7-87.9v-0.4l18-14.5 3.9-2.7q25-16 56.6-17.6l9-0.8q51.2 0 87.9 35.6l0.8 1.1q17.2 17.2 26.2 38.3v0.4q8.9 21.9 9.3 48.1v0.4l-0.4 12.5q-1.9-19.2-8.9-36.4v-0.4q-9-21.1-26.2-38.3l-0.8-1.1q-36.7-35.6-87.9-35.6l-9 0.8q-31.6 1.6-56.6 17.6l-3.9 2.7-18 14.5v0.4q-32.4 32-36.3 75.4zm-338 0.7l-0.3-12.8v-0.4q0-27 10.5-50l-0.8 1.5q9-21.9 27.4-39.4 36.3-35.6 87.1-35.6l8.6 0.8q30.4 1.2 56.6 17.2l3.1 2.3 15.7 11.4 4.7 4.3v0.3q35.9 36 35.9 87.6l-0.8 12.1q-3.9-43.8-35.1-75v-0.4l-4.7-4.3-15.7-11.4-3.1-1.9q-26.2-16.4-56.6-17.6l-8.6-0.8q-50.8 0-87.1 35.6-18.4 17.6-27.4 39.4l0.8-1.5q-8.2 17.9-10.2 38.6z"/>
	<path id="Layer" fill-rule="evenodd" class="s1" d="m207.3 180.5q2-20.7 10.2-38.6l-0.8 1.5q9-21.8 27.4-39.4 36.3-35.6 87.1-35.6l8.6 0.8q30.4 1.2 56.6 17.6l3.1 1.9 15.7 11.4 4.7 4.3v0.4q31.2 31.2 35.1 75-3.9 44.1-35.1 75.4v-0.4l-3.9 3.9-10.6 8.6-0.4 0.4q-33.2 24.2-73.8 24.2-51.2 0.4-87.9-37.1l1.2 0.8q-32.9-30.9-37.2-75.1zm585.6-0.3q-4.2 43.3-35.1 74.6l-0.4 0.4q-36.7 36.7-88.3 36.7-42.6-0.4-74.6-25l-2-1.6-10.1-9.7-0.8-0.8q-32.4-31.3-36.3-75 3.9-43.4 36.3-75.4v-0.4l18-14.5 3.9-2.7q25-16 56.6-17.6l9-0.8q51.2 0 87.9 35.6l0.8 1.1q17.2 17.2 26.2 38.3v0.4q7 17.2 8.9 36.4zm-48.8-12.5v-0.4q0-15.7-5.5-28.9-5.4-12.9-16-23.9-22.2-21.5-53.5-21.5l-4.3 0.4q-19.1 0.4-34.8 10.6l-0.7 0.4q-7.1 4.3-12.9 10.1-22.3 21.9-22.3 53.2 0 31.2 22.3 52.3l8.2 7.8q19.1 14.9 44.5 14.9 31.3 0 53.5-22.7 21.5-21.1 21.5-52.3zm-487.9 0q0 31.2 22.2 52.3 21.9 22.7 52.8 22.7 24.6 0 44.5-14.9l7.1-5.5 1.9-2.3q21.9-21.1 21.9-52.3 0-31.3-21.9-53.2l-1.9-1.5q-5.5-5.1-11.8-9h-0.4q-16-10.2-35.1-10.6l-4.3-0.4q-30.9 0-52.8 21.5-10.9 10.6-16 23.1-6.2 13.6-6.2 29.7z"/>
	<path id="Layer" fill-rule="evenodd" class="s6" d="m256.2 167.7v-0.4q0-16.1 6.2-29.7 5.1-12.5 16-23.1 21.9-21.5 52.8-21.5l4.3 0.4q19.1 0.4 35.1 10.6h0.4q6.3 3.9 11.8 9l1.9 1.5q21.9 21.9 21.9 53.2 0 31.2-21.9 52.3l-1.9 2.3-7.1 5.5q-19.9 14.9-44.5 14.9-30.9 0-52.8-22.7-22.2-21.1-22.2-52.3zm487.9 0q0 31.2-21.5 52.3-22.2 22.7-53.5 22.7-25.4 0-44.5-14.9l-8.2-7.8q-22.3-21.1-22.3-52.3 0-31.3 22.3-53.2 5.8-5.8 12.9-10.1l0.7-0.4q15.7-10.2 34.8-10.6l4.3-0.4q31.3 0 53.5 21.5 10.6 11 16 23.9 5.5 13.2 5.5 28.9zm-35.9 1.5q0-20.3-14.1-33.6-13.7-13.3-33.2-13.3-17.6 0-31.2 11.4l-2.4 1.9q-13.7 13.3-13.7 33.6 0 19.2 13.3 32.5h0.4q14.5 14.4 33.6 14.4 19.5 0 33.2-14.4 14.1-12.9 14.1-32.5zm-415.3 0q0 19.6 13.7 32.5 13.3 14.4 33.2 14.4 19.1 0 33.2-14.4h0.4l9.4-13.3q3.9-8.6 3.9-19.2 0-10.9-3.9-19.9-3.6-7.4-9.8-13.7l-2.4-1.9q-13.2-11.4-30.8-11.4-19.9 0-33.2 13.3-13.7 13.3-13.7 33.6z"/>
	<path id="Layer" class="s7" d="m292.9 169.2q0-20.3 13.7-33.6 13.3-13.3 33.2-13.3 17.6 0 30.8 11.4l2.4 1.9q6.2 6.3 9.8 13.7 3.9 9 3.9 19.9 0 10.6-3.9 19.2l-9.4 13.2h-0.4q-14.1 14.5-33.2 14.5-19.9 0-33.2-14.5-13.7-12.8-13.7-32.4zm415.3 0q0 19.6-14.1 32.4-13.7 14.5-33.2 14.5-19.1 0-33.6-14.5h-0.4q-13.3-13.2-13.3-32.4 0-20.3 13.7-33.6l2.4-1.9q13.6-11.4 31.2-11.4 19.5 0 33.2 13.3 14.1 13.3 14.1 33.6z"/>
	<path id="Layer" class="s0" d="m759.7 339.2l2.4-12.9q10.9-41.1 47.3-62.2 36.7-21 77.7-10.1 40.6 10.9 61.7 47.7 21.1 36.3 10.2 77.3l-3.9 12.5q4.7-34-13.3-64.5-20.3-36.7-61.3-47.6-41.1-11-77.8 10.1-30.5 18-43 49.7zm-714.5 52.3l-4.3-12.5q-10.9-41 10.2-77.3 21.5-36.8 61.7-47.7 41-10.9 77.4 10.1 36.7 21.1 47.6 62.2l2.7 12.9q-13.2-31.7-43.3-49.7-36.7-21.1-77.8-10.1-40.6 10.9-61.7 47.6-18 30.9-12.5 64.5z"/>
	<path id="Layer" class="s1" d="m45.2 391.5q-5.5-33.6 12.5-64.5 21.1-36.7 61.7-47.6 41.1-11 77.8 10.1 30.1 18 43.3 49.7 4.3 33.6-13.2 64.4-20.7 36.3-61.8 47.3-40.2 10.9-77.3-10.2-30.9-17.6-43-49.2zm909.9 0q-12.5 31.3-43.8 49.2-36.3 21.1-76.9 10.2-41.1-11-62.2-47.3-17.5-30.8-12.5-64.4 12.5-31.7 43-49.7 36.7-21.1 77.8-10.1 41 10.9 61.3 47.6 18 30.5 13.3 64.5z"/>
</svg>